<svg width="31" height="30" viewBox="0 0 31 30" fill="none" xmlns="http://www.w3.org/2000/svg">
<g id="vuesax/outline/apple">
<g id="apple">
<path id="Vector" d="M12.4667 28.4375C12.4542 28.4375 12.4417 28.4375 12.4167 28.4375C10.3167 28.425 8.81669 26.5375 7.75419 24.9C5.04169 20.7375 4.49169 15.5 6.45419 12.4625C7.76669 10.425 9.89169 9.16244 11.9917 9.16244C13.0792 9.16244 13.9292 9.46247 14.6792 9.73747C15.2792 9.94997 15.7917 10.1374 16.3292 10.1374C16.8042 10.1374 17.2167 9.97497 17.7417 9.77497C18.4667 9.49997 19.3542 9.16244 20.6417 9.16244C22.4917 9.16244 24.3917 10.1499 25.7167 11.8249C25.8917 12.0374 25.9542 12.325 25.9042 12.5875C25.8542 12.8625 25.6792 13.0874 25.4417 13.2249C24.0292 13.9999 23.2542 15.4124 23.3667 17.0124C23.4792 18.6374 24.4792 20.0124 25.9792 20.5749C26.2167 20.6624 26.4167 20.85 26.5167 21.0875C26.6167 21.325 26.6167 21.5999 26.5042 21.8249C25.9542 23.0499 25.6792 23.6124 24.9667 24.7124C23.7792 26.5374 22.2792 28.4125 20.2292 28.4375C19.3417 28.4375 18.7417 28.175 18.2167 27.925C17.6917 27.6875 17.1792 27.5 16.3667 27.475C15.4917 27.475 15.0292 27.6875 14.4917 27.925C13.9417 28.175 13.3417 28.4375 12.4667 28.4375ZM11.9917 11.0374C10.5167 11.0374 9.0042 11.975 8.0292 13.475C6.7042 15.525 6.7167 19.8625 9.3292 23.875C10.1417 25.125 11.2292 26.55 12.4417 26.5625C12.8917 26.55 13.2292 26.425 13.6917 26.225C14.3042 25.95 15.0667 25.6125 16.3292 25.6C17.5667 25.575 18.3667 25.9375 18.9792 26.225C19.4292 26.4375 19.7292 26.575 20.1917 26.5625C21.3667 26.55 22.5042 25.0249 23.3792 23.6999C23.8417 22.9874 24.1042 22.5374 24.3917 21.8999C22.7167 20.9124 21.6167 19.175 21.4792 17.15C21.3417 15.2375 22.1167 13.45 23.5417 12.2625C22.6667 11.4875 21.6292 11.05 20.6292 11.05C19.6917 11.05 19.0667 11.2875 18.4042 11.5375C17.7792 11.775 17.1292 12.025 16.3167 12.025C15.4542 12.025 14.7417 11.7625 14.0417 11.525C13.3792 11.2625 12.7417 11.0374 11.9917 11.0374ZM15.7042 8.91247C15.6667 8.91247 15.6167 8.91247 15.5792 8.91247C15.1417 8.89997 14.7667 8.57497 14.6917 8.13747C14.4292 6.72497 14.9292 5.09995 16.0167 3.77495C17.0167 2.56245 18.6667 1.66246 20.1292 1.56246C20.6417 1.53746 21.0542 1.87498 21.1167 2.36248C21.3292 3.82498 20.8667 5.42496 19.8292 6.76246C18.8167 8.07496 17.2042 8.91247 15.7042 8.91247ZM19.2417 3.68747C18.5667 3.96247 17.9042 4.42496 17.4667 4.96246C17.0542 5.46246 16.6667 6.16247 16.5417 6.88747C17.2167 6.66247 17.8917 6.21245 18.3542 5.61245C18.6042 5.29995 19.0792 4.57497 19.2417 3.68747Z" fill="#52C3D6"/>
</g>
</g>
</svg>
