<svg width="31" height="30" viewBox="0 0 31 30" fill="none" xmlns="http://www.w3.org/2000/svg">
<g id="vuesax/outline/google-paly">
<g id="google-paly">
<path id="Vector" d="M22.0417 19.95C21.8042 19.95 21.5542 19.85 21.3792 19.675L17.3917 15.6875C17.0292 15.325 17.0292 14.725 17.3917 14.3625L21.4167 10.3375C21.7042 10.05 22.1417 9.98754 22.5042 10.1625L28.1167 12.975C28.8917 13.35 29.3792 14.125 29.3792 15C29.3792 15.875 28.8917 16.65 28.1167 17.025L22.4792 19.85C22.3292 19.9125 22.1792 19.95 22.0417 19.95ZM19.3792 15.025L22.2167 17.8625L27.2542 15.3375C27.2542 15.3375 27.2542 15.3375 27.2667 15.3375C27.4542 15.25 27.4792 15.0875 27.4792 15C27.4792 14.9125 27.4542 14.75 27.2667 14.6625L22.2542 12.15L19.3792 15.025Z" fill="#52C3D6"/>
<path id="Vector_2" d="M4.7667 28.4375C4.3542 28.4375 3.9292 28.325 3.5667 28.0875C2.8917 27.675 2.4917 26.95 2.4917 26.15V3.82503C2.4917 3.03753 2.8917 2.31254 3.5667 1.88754C4.2417 1.47504 5.0667 1.42502 5.7792 1.78752L22.4917 10.15C22.7667 10.2875 22.9542 10.5375 22.9917 10.8375C23.0292 11.1375 22.9417 11.4375 22.7292 11.65L6.7292 27.65C6.6542 27.725 6.5792 27.775 6.4792 27.825L5.7542 28.1875C5.4542 28.3625 5.1042 28.4375 4.7667 28.4375ZM4.7667 3.43753C4.6792 3.43753 4.6042 3.47502 4.5542 3.50002C4.4792 3.53752 4.3667 3.65004 4.3667 3.83754V26.1625C4.3667 26.3625 4.4792 26.4625 4.5542 26.5C4.6292 26.55 4.7667 26.6 4.9542 26.5125L5.5292 26.225L20.4917 11.2625L4.9417 3.48754C4.8792 3.45004 4.8167 3.43753 4.7667 3.43753Z" fill="#52C3D6"/>
<path id="Vector_3" d="M6.07919 27.9375C5.79169 27.9375 5.50419 27.8 5.31669 27.55C5.04169 27.175 5.09169 26.6625 5.41669 26.3375L17.3917 14.3625C17.5667 14.1875 17.8042 14.0875 18.0542 14.0875C18.3042 14.0875 18.5417 14.1875 18.7167 14.3625L22.7042 18.35C22.9167 18.5625 23.0167 18.8625 22.9667 19.1625C22.9167 19.4625 22.7292 19.7125 22.4667 19.85L6.51669 27.8375C6.36669 27.9 6.22919 27.9375 6.07919 27.9375ZM18.0542 16.35L10.8417 23.5625L20.4542 18.75L18.0542 16.35Z" fill="#52C3D6"/>
<path id="Vector_4" d="M18.0542 15.9625C17.8167 15.9625 17.5792 15.875 17.3917 15.6875L5.37921 3.675C5.01671 3.3125 5.01671 2.7125 5.37921 2.35C5.74171 1.9875 6.34171 1.9875 6.70421 2.35L18.7167 14.3625C19.0792 14.725 19.0792 15.325 18.7167 15.6875C18.5417 15.875 18.2917 15.9625 18.0542 15.9625Z" fill="#52C3D6"/>
<path id="Vector_5" d="M22.0542 19.975C21.8292 19.975 21.5917 19.8875 21.4167 19.7L21.3792 19.6625C21.0167 19.3 21.0167 18.7 21.3917 18.3375C21.7667 17.975 22.3542 17.975 22.7167 18.35C23.0792 18.7125 23.0917 19.3375 22.7292 19.7C22.5292 19.8875 22.2917 19.975 22.0542 19.975Z" fill="#52C3D6"/>
</g>
</g>
</svg>
