<svg width="41" height="40" viewBox="0 0 41 40" fill="none" xmlns="http://www.w3.org/2000/svg">
<g id="PHP" clip-path="url(#clip0_1_7195)">
<g id="Union">
<path d="M30.3134 17.0422C31.1678 17.0422 31.7324 17.1948 32.0223 17.5153C32.3123 17.8357 32.3733 18.3698 32.2207 19.1327C32.0681 19.9261 31.7629 20.506 31.3204 20.8417C30.8779 21.1774 30.2065 21.3452 29.3063 21.3452H27.9482L28.7875 17.0422H30.3134Z" fill="#52C3D6"/>
<path d="M12.8115 17.0422C13.666 17.0422 14.2306 17.1948 14.5205 17.5153C14.8104 17.8357 14.8715 18.3698 14.7189 19.1327C14.5663 19.9261 14.2611 20.506 13.8186 20.8417C13.3761 21.1774 12.7047 21.3452 11.8044 21.3452H10.4464L11.2856 17.0422H12.8115Z" fill="#52C3D6"/>
<path fill-rule="evenodd" clip-rule="evenodd" d="M20.9292 29.4629C31.2947 29.4629 39.6975 25.2068 39.6975 19.9567C39.6975 14.7065 31.2947 10.4504 20.9292 10.4504C10.5637 10.4504 2.16089 14.7065 2.16089 19.9567C2.16089 25.2068 10.5637 29.4629 20.9292 29.4629ZM27.0938 25.7092H24.8507L26.8496 15.4095H31.1678C32.4648 15.4095 33.4109 15.7452 34.006 16.4319C34.6011 17.1185 34.7842 18.0646 34.54 19.2853C34.4485 19.7888 34.2806 20.2466 34.0518 20.6586C33.8229 21.0706 33.5177 21.452 33.1362 21.803C32.6785 22.2302 32.1902 22.5201 31.6409 22.7032C31.0916 22.8864 30.4049 22.9779 29.5504 22.9779H27.6278L27.0938 25.7092ZM18.6862 12.6782H20.9139L20.3799 15.4095H22.3635C23.6147 15.4095 24.4692 15.6232 24.9423 16.0657C25.4153 16.5082 25.5526 17.2101 25.3695 18.1866L24.4387 22.9779H22.1804L23.0654 18.4155C23.1722 17.8967 23.1265 17.5458 22.9586 17.3627C22.7908 17.1796 22.4093 17.0728 21.8447 17.0728H20.0594L18.915 22.9779H16.6873L18.6862 12.6782ZM9.59192 25.7092H7.34888L9.34778 15.4095H13.666C14.963 15.4095 15.9091 15.7452 16.5042 16.4319C17.0992 17.1185 17.2823 18.0646 17.0382 19.2853C16.9467 19.7888 16.7788 20.2466 16.5499 20.6586C16.321 21.0706 16.0159 21.452 15.6344 21.803C15.1766 22.2302 14.6884 22.5201 14.139 22.7032C13.5897 22.8864 12.9031 22.9779 12.0486 22.9779H10.126L9.59192 25.7092Z" fill="#52C3D6"/>
<path fill-rule="evenodd" clip-rule="evenodd" d="M40.4604 19.9567C40.4604 25.6282 31.716 30.2258 20.9292 30.2258C10.1424 30.2258 1.39795 25.6282 1.39795 19.9567C1.39795 14.2852 10.1424 9.6875 20.9292 9.6875C31.716 9.6875 40.4604 14.2852 40.4604 19.9567ZM40.1479 19.9567C40.1479 22.6185 38.0902 25.1035 34.5944 26.9415C31.1132 28.7718 26.2824 29.9133 20.9292 29.9133C15.576 29.9133 10.7452 28.7718 7.26395 26.9415C3.76823 25.1035 1.71045 22.6185 1.71045 19.9567C1.71045 17.2948 3.76823 14.8099 7.26395 12.9719C10.7452 11.1415 15.576 10 20.9292 10C26.2824 10 31.1132 11.1415 34.5944 12.9719C38.0902 14.8099 40.1479 17.2948 40.1479 19.9567Z" fill="#52C3D6"/>
</g>
</g>
<defs>
<clipPath id="clip0_1_7195">
<rect width="40" height="40" fill="white" transform="translate(0.929199)"/>
</clipPath>
</defs>
</svg>
