<svg width="31" height="30" viewBox="0 0 31 30" fill="none" xmlns="http://www.w3.org/2000/svg">
<g id="React" clip-path="url(#clip0_1_7197)">
<path id="Vector" d="M25.5952 10.2918C25.284 10.1847 24.9615 10.0834 24.6295 9.98751C24.6841 9.76478 24.7342 9.54493 24.7787 9.32882C25.5097 5.78026 25.0317 2.92151 23.3996 1.98029C21.8346 1.07779 19.2751 2.01879 16.6901 4.26841C16.4415 4.48473 16.1922 4.71376 15.9431 4.9538C15.7771 4.79498 15.6113 4.64151 15.446 4.49472C12.7369 2.08928 10.0214 1.0756 8.39083 2.01954C6.82729 2.92466 6.36426 5.61216 7.02231 8.97516C7.08585 9.29999 7.16013 9.63171 7.24413 9.96898C6.85981 10.0781 6.48879 10.1944 6.13379 10.3181C2.95764 11.4255 0.929199 13.1609 0.929199 14.9611C0.929199 16.8203 3.10673 18.6851 6.41494 19.8159C6.67601 19.9051 6.94691 19.9895 7.22608 20.0696C7.13546 20.4343 7.05664 20.7918 6.99048 21.1404C6.36304 24.4451 6.85303 27.0691 8.41241 27.9685C10.0231 28.8973 12.7263 27.9426 15.3585 25.6417C15.5666 25.4598 15.7754 25.2669 15.9845 25.0648C16.2556 25.3258 16.5263 25.5729 16.7956 25.8047C19.3452 27.9987 21.8633 28.8847 23.4213 27.9827C25.0304 27.0512 25.5533 24.2324 24.8744 20.8029C24.8225 20.541 24.7622 20.2734 24.6944 20.0011C24.8843 19.9449 25.0706 19.887 25.2523 19.8268C28.6915 18.6873 30.9292 16.8451 30.9292 14.9611C30.9292 13.1544 28.8353 11.4072 25.5952 10.2918ZM24.8493 18.6103C24.6852 18.6646 24.5169 18.7171 24.3454 18.768C23.9657 17.566 23.4533 16.2879 22.8262 14.9673C23.4246 13.6783 23.9172 12.4165 24.2863 11.2223C24.5932 11.3111 24.891 11.4048 25.1781 11.5036C27.9542 12.4593 29.6476 13.8723 29.6476 14.9611C29.6476 16.1208 27.8188 17.6263 24.8493 18.6103ZM23.6171 21.0518C23.9174 22.5683 23.9602 23.9394 23.7614 25.0112C23.5827 25.9743 23.2234 26.6165 22.7791 26.8736C21.8336 27.4209 19.8118 26.7095 17.6314 24.8332C17.3814 24.6181 17.1296 24.3884 16.877 24.1453C17.7224 23.2208 18.5672 22.1461 19.3917 20.9524C20.842 20.8237 22.2122 20.6133 23.4548 20.3261C23.5159 20.573 23.5703 20.8151 23.6171 21.0518ZM11.1569 26.7791C10.2332 27.1053 9.49748 27.1146 9.05277 26.8582C8.10648 26.3124 7.71308 24.2056 8.2497 21.3795C8.31116 21.0558 8.38432 20.7233 8.46863 20.3835C9.69757 20.6553 11.0577 20.8508 12.5115 20.9687C13.3416 22.1367 14.2108 23.2103 15.0868 24.1503C14.8954 24.3351 14.7047 24.511 14.5152 24.6767C13.3512 25.6941 12.1848 26.416 11.1569 26.7791ZM6.82943 18.6032C5.3666 18.1032 4.15854 17.4534 3.33047 16.7443C2.5864 16.107 2.21074 15.4744 2.21074 14.9611C2.21074 13.8687 3.83937 12.4753 6.55565 11.5283C6.88523 11.4134 7.23024 11.3051 7.58829 11.2034C7.96369 12.4245 8.45614 13.7012 9.05042 14.9923C8.44845 16.3025 7.949 17.5996 7.56992 18.835C7.31467 18.7617 7.06738 18.6844 6.82943 18.6032ZM8.28003 8.72904C7.71623 5.8477 8.09067 3.67413 9.03291 3.1287C10.0366 2.54766 12.2559 3.3761 14.595 5.45308C14.7445 5.58583 14.8946 5.72478 15.0452 5.86853C14.1735 6.80446 13.3122 7.87 12.4895 9.03112C11.0786 9.1619 9.72801 9.37197 8.48626 9.65328C8.40819 9.33924 8.33903 9.03069 8.28003 8.72904ZM21.2207 11.9244C20.9238 11.4117 20.6191 10.9111 20.3084 10.4241C21.2656 10.5451 22.1827 10.7057 23.0439 10.9023C22.7853 11.731 22.4631 12.5974 22.0837 13.4856C21.8116 12.9689 21.5238 12.448 21.2207 11.9244ZM15.9435 6.78444C16.5346 7.42486 17.1266 8.13988 17.7089 8.91567C17.1221 8.88796 16.5281 8.87354 15.9292 8.87354C15.3359 8.87354 14.7463 8.88764 14.1632 8.91487C14.746 8.14629 15.3431 7.43223 15.9435 6.78444ZM10.6325 11.9333C10.336 12.4475 10.0535 12.9656 9.78568 13.4846C9.41247 12.5995 9.0932 11.7291 8.83239 10.8887C9.68833 10.6972 10.6011 10.5406 11.5522 10.4219C11.2371 10.9133 10.9299 11.4176 10.6325 11.9332V11.9333ZM11.5796 19.5917C10.5969 19.4821 9.67045 19.3336 8.81472 19.1473C9.07969 18.2919 9.40601 17.403 9.78712 16.4988C10.0557 17.0175 10.3393 17.5358 10.6376 18.0511H10.6377C10.9416 18.576 11.2564 19.0903 11.5796 19.5917ZM15.979 23.2281C15.3715 22.5727 14.7657 21.8478 14.174 21.068C14.7484 21.0905 15.334 21.102 15.9292 21.102C16.5407 21.102 17.1452 21.0883 17.7401 21.0618C17.1559 21.8556 16.5661 22.5817 15.979 23.2281ZM22.0959 16.4527C22.4969 17.3666 22.8349 18.2509 23.1033 19.0918C22.2335 19.2902 21.2944 19.45 20.3049 19.5688C20.6163 19.0753 20.9237 18.566 21.2258 18.0422C21.5314 17.5123 21.8216 16.9816 22.0959 16.4527ZM20.1157 17.402C19.6467 18.2151 19.1653 18.9913 18.6765 19.724C17.7863 19.7877 16.8666 19.8205 15.9292 19.8205C14.9956 19.8205 14.0875 19.7915 13.213 19.7347C12.7046 18.9924 12.2126 18.2139 11.7467 17.409H11.7468C11.282 16.6063 10.8543 15.7968 10.4667 14.9919C10.8542 14.185 11.2808 13.3746 11.7429 12.5734L11.7428 12.5735C12.2061 11.7701 12.6937 10.9954 13.1974 10.2578C14.0896 10.1903 15.0045 10.1551 15.9291 10.1551H15.9292C16.858 10.1551 17.774 10.1906 18.666 10.2586C19.1621 10.9909 19.6463 11.7631 20.1115 12.5666C20.5819 13.3791 21.014 14.1841 21.4047 14.9736C21.0151 15.7767 20.584 16.5898 20.1157 17.402ZM22.7594 3.09058C23.764 3.66991 24.1547 6.00635 23.5235 9.07016C23.4833 9.26565 23.4379 9.46478 23.3887 9.66658C22.1441 9.37939 20.7925 9.16569 19.3775 9.03294C18.5531 7.85905 17.6989 6.79186 16.8415 5.86794C17.072 5.64617 17.3022 5.43471 17.5315 5.23516C19.7463 3.3077 21.8163 2.5467 22.7594 3.09058ZM15.9292 12.2822C17.4087 12.2822 18.6081 13.4816 18.6081 14.9611C18.6081 16.4406 17.4087 17.64 15.9292 17.64C14.4497 17.64 13.2503 16.4406 13.2503 14.9611C13.2503 13.4816 14.4497 12.2822 15.9292 12.2822Z" fill="#52C3D6"/>
</g>
<defs>
<clipPath id="clip0_1_7197">
<rect width="30" height="30" fill="white" transform="translate(0.929199)"/>
</clipPath>
</defs>
</svg>
