<svg width="31" height="30" viewBox="0 0 31 30" fill="none" xmlns="http://www.w3.org/2000/svg">
<g id="vr-3d 1">
<path id="Vector" d="M2.8792 11.07C2.8792 10.98 2.9092 10.89 2.9392 10.8C2.9392 10.71 2.9392 10.62 2.9992 10.56L3.1192 10.26C3.1192 10.23 3.1492 10.2 3.1492 10.2L4.4992 7.14C5.0092 5.97 6.1192 5.13 7.4092 4.98H7.4692C7.6192 4.95 7.7692 4.92 7.8892 4.92C10.4692 4.62 13.1692 4.5 15.9292 4.5C18.7192 4.5 21.4192 4.62 23.9692 4.89H24.0292C24.0892 4.89 24.1492 4.92 24.2092 4.92C24.2992 4.92 24.3892 4.95 24.4792 4.95C25.7692 5.1 26.8792 5.94 27.3592 7.11L28.5892 9.96C28.7092 10.17 28.7992 10.41 28.8892 10.65V10.71C28.9192 10.83 28.9492 10.98 28.9792 11.13C29.2792 12.87 29.4292 14.7 29.4292 16.5C29.4292 18.3 29.2792 20.07 28.9792 21.87C28.6792 23.46 27.4192 24.66 25.8592 24.84C24.0292 25.08 22.7992 25.2 22.1092 25.26H21.8692C20.6092 25.26 19.5292 24.09 18.4792 22.95C17.6392 22.05 16.6792 21 15.9592 21C15.2392 21 14.2792 22.02 13.4392 22.95C12.3292 24.15 11.1892 25.38 9.8692 25.26C9.2392 25.2 7.9792 25.08 6.0292 24.84C4.4092 24.63 3.1492 23.43 2.9092 21.87C2.6092 20.04 2.4592 18.3 2.4592 16.5C2.4292 14.67 2.5792 12.84 2.8792 11.07ZM24.2992 6.15H24.2392C24.1792 6.15 24.1192 6.12 24.0592 6.12C23.9692 6.12 23.8792 6.09 23.8192 6.09C21.3292 5.82 18.6592 5.7 15.9292 5.7C13.1992 5.7 10.5292 5.82 7.9792 6.09H7.9192C7.8592 6.09 7.7692 6.12 7.6492 6.12L7.5592 6.15H7.5292C6.6592 6.24 5.9092 6.81 5.5792 7.59L5.2792 8.25C5.4892 8.19 5.7292 8.13 5.9692 8.1C12.8392 7.29 18.9592 7.29 25.8592 8.1C26.0692 8.13 26.3092 8.19 26.5192 8.25L26.2192 7.56C25.8892 6.78 25.1692 6.24 24.2992 6.15ZM4.0792 21.66C4.2592 22.71 5.0992 23.49 6.1792 23.64C8.0692 23.88 9.3592 24 9.9292 24.06C10.6792 24.12 11.6392 23.07 12.5092 22.11C13.5892 20.97 14.6692 19.8 15.9292 19.8C17.1892 19.8 18.2692 20.97 19.3192 22.11C20.1892 23.04 21.1792 24.12 21.8992 24.06H21.9892C22.6492 24 23.9092 23.88 25.7092 23.64C26.7592 23.52 27.5992 22.71 27.8092 21.63C28.0792 19.92 28.2292 18.24 28.2292 16.5C28.2292 14.76 28.0792 13.02 27.7792 11.28C27.7492 11.16 27.7192 11.07 27.6892 10.98L27.4792 10.53C27.1192 9.9 26.4592 9.42 25.6792 9.33C18.9292 8.49 12.9292 8.49 6.1192 9.3C5.0692 9.42 4.2292 10.23 4.0492 11.25C3.7492 12.99 3.5992 14.73 3.5992 16.47C3.6292 18.21 3.7792 19.89 4.0792 21.66ZM10.0792 12C12.1492 12 13.8292 13.68 13.8292 15.75C13.8292 17.82 12.1492 19.5 10.0792 19.5C8.0092 19.5 6.3292 17.82 6.3292 15.75C6.3292 13.68 8.0092 12 10.0792 12ZM10.0792 18.3C11.4892 18.3 12.6292 17.16 12.6292 15.75C12.6292 14.34 11.4892 13.2 10.0792 13.2C8.6692 13.2 7.5292 14.34 7.5292 15.75C7.5292 17.16 8.6692 18.3 10.0792 18.3ZM21.7792 12C23.8492 12 25.5292 13.68 25.5292 15.75C25.5292 17.82 23.8492 19.5 21.7792 19.5C19.7092 19.5 18.0292 17.82 18.0292 15.75C18.0292 13.68 19.7092 12 21.7792 12ZM21.7792 18.3C23.1892 18.3 24.3292 17.16 24.3292 15.75C24.3292 14.34 23.1892 13.2 21.7792 13.2C20.3692 13.2 19.2292 14.34 19.2292 15.75C19.2292 17.16 20.3692 18.3 21.7792 18.3Z" fill="#52C3D6"/>
</g>
</svg>
