<svg width="37" height="36" viewBox="0 0 37 36" fill="none" xmlns="http://www.w3.org/2000/svg">
<path d="M32.4292 11.625H5.4292C4.8142 11.625 4.3042 11.115 4.3042 10.5C4.3042 9.885 4.8142 9.375 5.4292 9.375H32.4292C33.0442 9.375 33.5542 9.885 33.5542 10.5C33.5542 11.115 33.0442 11.625 32.4292 11.625Z" fill="#1C344C"/>
<path d="M32.4292 19.125H5.4292C4.8142 19.125 4.3042 18.615 4.3042 18C4.3042 17.385 4.8142 16.875 5.4292 16.875H32.4292C33.0442 16.875 33.5542 17.385 33.5542 18C33.5542 18.615 33.0442 19.125 32.4292 19.125Z" fill="#1C344C"/>
<path d="M32.4292 26.625H5.4292C4.8142 26.625 4.3042 26.115 4.3042 25.5C4.3042 24.885 4.8142 24.375 5.4292 24.375H32.4292C33.0442 24.375 33.5542 24.885 33.5542 25.5C33.5542 26.115 33.0442 26.625 32.4292 26.625Z" fill="#1C344C"/>
</svg>
