<svg width="27" height="26" viewBox="0 0 27 26" fill="none" xmlns="http://www.w3.org/2000/svg">
<g id="vuesax/outline/moon" filter="url(#filter0_d_107_31)">
<g id="moon">
<path id="Vector" d="M14.3125 21.9584C14.1709 21.9584 14.0292 21.9584 13.8875 21.9501C9.22087 21.7418 5.32087 17.9834 4.99587 13.4001C4.71254 9.46676 6.98754 5.79176 10.6542 4.2501C11.6959 3.81676 12.2459 4.1501 12.4792 4.39176C12.7125 4.6251 13.0375 5.16676 12.6042 6.15843C12.2209 7.04176 12.0292 7.98343 12.0375 8.9501C12.0542 12.6418 15.1209 15.7751 18.8625 15.9251C19.4042 15.9501 19.9375 15.9084 20.4542 15.8168C21.5542 15.6168 22.0125 16.0584 22.1875 16.3418C22.3625 16.6251 22.5625 17.2334 21.8959 18.1334C20.1292 20.5501 17.3209 21.9584 14.3125 21.9584ZM6.23754 13.3084C6.52087 17.2751 9.90421 20.5251 13.9375 20.7001C16.6792 20.8334 19.2792 19.5834 20.8792 17.4001C21.0042 17.2251 21.0625 17.1001 21.0875 17.0334C21.0125 17.0251 20.8792 17.0168 20.6709 17.0584C20.0625 17.1668 19.4292 17.2084 18.8042 17.1834C14.4042 17.0084 10.8042 13.3168 10.7792 8.96676C10.7792 7.81676 11.0042 6.70843 11.4625 5.66676C11.5459 5.48343 11.5625 5.35843 11.5709 5.29176C11.4959 5.29176 11.3625 5.30843 11.1459 5.4001C7.97087 6.73343 6.00421 9.91676 6.23754 13.3084Z" fill="white"/>
</g>
</g>
<defs>
<filter id="filter0_d_107_31" x="0.972137" y="0.0400391" width="25.3861" height="25.9185" filterUnits="userSpaceOnUse" color-interpolation-filters="sRGB">
<feFlood flood-opacity="0" result="BackgroundImageFix"/>
<feColorMatrix in="SourceAlpha" type="matrix" values="0 0 0 0 0 0 0 0 0 0 0 0 0 0 0 0 0 0 127 0" result="hardAlpha"/>
<feOffset/>
<feGaussianBlur stdDeviation="2"/>
<feComposite in2="hardAlpha" operator="out"/>
<feColorMatrix type="matrix" values="0 0 0 0 1 0 0 0 0 1 0 0 0 0 1 0 0 0 1 0"/>
<feBlend mode="normal" in2="BackgroundImageFix" result="effect1_dropShadow_107_31"/>
<feBlend mode="normal" in="SourceGraphic" in2="effect1_dropShadow_107_31" result="shape"/>
</filter>
</defs>
</svg>
