<svg width="25" height="24" viewBox="0 0 25 24" fill="none" xmlns="http://www.w3.org/2000/svg">
<g id="vuesax/outline/translate">
<g id="translate">
<path id="Vector" d="M15.7192 19.4199C15.6092 19.4199 15.4892 19.3899 15.3892 19.3399C15.0192 19.1499 14.8692 18.6999 15.0492 18.3299L17.1892 14.0599C17.3192 13.8099 17.5792 13.6499 17.8592 13.6499C18.1392 13.6499 18.3992 13.8099 18.5292 14.0699L20.6692 18.3399C20.8592 18.7099 20.7092 19.1599 20.3292 19.3499C19.9592 19.5399 19.5092 19.3899 19.3192 19.0099L17.8592 16.0799L16.3992 19.0099C16.2592 19.2699 15.9892 19.4199 15.7192 19.4199Z" fill="#1C344C"/>
<path id="Vector_2" d="M19.6093 18.6602H16.0894C15.6794 18.6602 15.3394 18.3202 15.3394 17.9102C15.3394 17.5002 15.6794 17.1602 16.0894 17.1602H19.6093C20.0193 17.1602 20.3593 17.5002 20.3593 17.9102C20.3593 18.3202 20.0293 18.6602 19.6093 18.6602Z" fill="#1C344C"/>
<path id="Vector_3" d="M17.849 22.7498C14.639 22.7498 12.019 20.1398 12.019 16.9198C12.019 13.6998 14.629 11.0898 17.849 11.0898C21.059 11.0898 23.679 13.6998 23.679 16.9198C23.679 20.1398 21.069 22.7498 17.849 22.7498ZM17.849 12.5998C15.459 12.5998 13.519 14.5398 13.519 16.9298C13.519 19.3198 15.459 21.2598 17.849 21.2598C20.229 21.2598 22.179 19.3198 22.179 16.9298C22.179 14.5398 20.239 12.5998 17.849 12.5998Z" fill="#1C344C"/>
<path id="Vector_4" d="M5.7892 12.7003C4.6792 12.7003 3.7992 12.3902 3.1792 11.7902C2.5192 11.1502 2.1792 10.1802 2.1792 8.93024V5.01025C2.1792 2.58025 3.5192 1.24023 5.9492 1.24023H9.8692C11.1192 1.24023 12.0792 1.57023 12.7292 2.24023C13.3592 2.89023 13.6692 3.83027 13.6392 5.03027V8.93024C13.6692 10.1502 13.3592 11.1103 12.7092 11.7603C12.0592 12.4103 11.0992 12.7102 9.85919 12.6902H5.9592C5.8892 12.7002 5.8392 12.7003 5.7892 12.7003ZM5.9492 2.75024C4.3392 2.75024 3.6792 3.41026 3.6792 5.02026V8.94025C3.6792 9.77025 3.85919 10.3702 4.21919 10.7202C4.56919 11.0602 5.1292 11.2103 5.9192 11.2003H9.85919C10.6992 11.2203 11.2792 11.0503 11.6292 10.7003C11.9792 10.3503 12.1392 9.76026 12.1192 8.95026V5.01025C12.1392 4.21025 11.9792 3.64022 11.6392 3.29022C11.2892 2.93022 10.6892 2.75024 9.85919 2.75024H5.9492Z" fill="#1C344C"/>
<path id="Vector_5" d="M9.92914 6.59961H5.86914C5.45914 6.59961 5.11914 6.25961 5.11914 5.84961C5.11914 5.43961 5.45914 5.09961 5.86914 5.09961H9.92914C10.3391 5.09961 10.6791 5.43961 10.6791 5.84961C10.6791 6.25961 10.3491 6.59961 9.92914 6.59961Z" fill="#1C344C"/>
<path id="Vector_6" d="M7.90918 6.59991C7.49918 6.59991 7.15918 6.25991 7.15918 5.84991V5.16992C7.15918 4.75992 7.49918 4.41992 7.90918 4.41992C8.31918 4.41992 8.65918 4.75992 8.65918 5.16992V5.84991C8.65918 6.25991 8.31918 6.59991 7.90918 6.59991Z" fill="#1C344C"/>
<path id="Vector_7" d="M5.86914 9.75983C5.45914 9.75983 5.11914 9.41983 5.11914 9.00983C5.11914 8.59983 5.45914 8.25983 5.86914 8.25983C7.13914 8.25983 8.16914 7.17984 8.16914 5.83984C8.16914 5.42984 8.50914 5.08984 8.91914 5.08984C9.32914 5.08984 9.66914 5.42984 9.66914 5.83984C9.66914 7.99984 7.96914 9.75983 5.86914 9.75983Z" fill="#1C344C"/>
<path id="Vector_8" d="M9.93913 9.76007C9.00913 9.76007 8.11914 9.29008 7.48914 8.46008C7.23914 8.13008 7.30915 7.66003 7.63915 7.41003C7.96915 7.16003 8.43913 7.23005 8.68913 7.56005C9.02913 8.02005 9.47913 8.27008 9.93913 8.27008C10.3491 8.27008 10.6891 8.61008 10.6891 9.02008C10.6891 9.43008 10.3491 9.76007 9.93913 9.76007Z" fill="#1C344C"/>
<path id="Vector_9" d="M9.9292 22.75C5.6592 22.75 2.1792 19.27 2.1792 15C2.1792 14.59 2.5192 14.25 2.9292 14.25C3.3392 14.25 3.6792 14.59 3.6792 15C3.6792 17.96 5.7392 20.44 8.5092 21.09L8.2392 20.64C8.0292 20.28 8.13921 19.82 8.49921 19.61C8.84921 19.4 9.31921 19.51 9.52921 19.87L10.5792 21.62C10.7192 21.85 10.7192 22.14 10.5892 22.37C10.4492 22.6 10.1992 22.75 9.9292 22.75Z" fill="#1C344C"/>
<path id="Vector_10" d="M22.9291 9.75C22.5191 9.75 22.1791 9.41 22.1791 9C22.1791 6.04 20.1191 3.55997 17.3491 2.90997L17.6191 3.35999C17.8291 3.71999 17.7191 4.18001 17.3591 4.39001C17.0091 4.60001 16.5391 4.49001 16.3291 4.13L15.2791 2.38C15.1391 2.15 15.1391 1.86 15.2691 1.63C15.3991 1.39 15.6491 1.25 15.9191 1.25C20.1891 1.25 23.6691 4.73 23.6691 9C23.6791 9.41 23.3391 9.75 22.9291 9.75Z" fill="#1C344C"/>
</g>
</g>
</svg>
