<svg width="27" height="34" viewBox="0 0 27 34" fill="none" xmlns="http://www.w3.org/2000/svg">
<path id="Vector" fill-rule="evenodd" clip-rule="evenodd" d="M18.761 24.7951L18.0037 24.9668V26.0026C18.0037 27.779 16.9184 29.2903 15.4035 29.8504V32.64C15.4035 33.3911 14.8214 34 14.1034 34C13.3854 34 12.8033 33.3911 12.8033 32.64V29.8504C11.2885 29.2903 10.2031 27.779 10.2031 26.0026V25.0425C10.0901 25.0191 9.97729 24.9946 9.86461 24.9691L9.09739 24.7951C5.35437 23.9466 2.39259 20.9557 1.45008 17.0725C0.755571 14.211 0.755571 11.2134 1.45008 8.35201C2.39259 4.46883 5.35438 1.47787 9.09739 0.629346L9.86461 0.455424C12.5433 -0.151809 15.3152 -0.151808 17.9938 0.455425L18.761 0.629346C22.504 1.47787 25.4658 4.46884 26.4083 8.35202C27.1028 11.2134 27.1028 14.211 26.4083 17.0725C25.4658 20.9556 22.504 23.9466 18.761 24.7951ZM15.4035 25.3652C15.2527 25.3773 15.1018 25.3876 14.9508 25.396C14.2355 25.4359 13.5185 25.4339 12.8033 25.3899V26.0026C12.8033 26.7537 13.3854 27.3626 14.1034 27.3626C14.8214 27.3626 15.4035 26.7537 15.4035 26.0026V25.3652ZM15.4466 7.31042C15.8951 7.68579 15.9678 8.37045 15.609 8.83967L13.4939 11.6053H16.5303C16.9301 11.6053 17.2945 11.8451 17.4677 12.222C17.6409 12.599 17.5922 13.0464 17.3424 13.373L13.8755 17.9063C13.5167 18.3755 12.8622 18.4516 12.4136 18.0763C11.9651 17.7009 11.8924 17.0162 12.2512 16.547L14.3663 13.7813H11.3299C10.9301 13.7813 10.5657 13.5416 10.3925 13.1646C10.2193 12.7877 10.268 12.3403 10.5178 12.0137L13.9847 7.48033C14.3435 7.01112 14.998 6.93504 15.4466 7.31042Z" fill="#52C3D6"/>
</svg>
