<svg width="23" height="22" viewBox="0 0 23 22" fill="none" xmlns="http://www.w3.org/2000/svg">
<g id="vuesax/outline/play">
<g id="play">
<path id="Vector" d="M8.14337 19.5066C7.4192 19.5066 6.7317 19.3324 6.1267 18.9841C4.6967 18.1591 3.90837 16.4816 3.90837 14.2724V7.73662C3.90837 5.51828 4.6967 3.84995 6.1267 3.02495C7.5567 2.19995 9.3992 2.35578 11.3242 3.46495L16.98 6.72828C18.8959 7.83745 19.9592 9.35912 19.9592 11.0091C19.9592 12.6591 18.905 14.1808 16.98 15.2899L11.3242 18.5533C10.215 19.1858 9.13337 19.5066 8.14337 19.5066ZM8.14337 3.86828C7.64837 3.86828 7.20837 3.97828 6.8142 4.20745C5.8242 4.77578 5.28337 6.03162 5.28337 7.73662V14.2633C5.28337 15.9683 5.8242 17.2149 6.8142 17.7924C7.8042 18.3699 9.16087 18.2049 10.6367 17.3524L16.2925 14.0891C17.7684 13.2366 18.5842 12.1458 18.5842 10.9999C18.5842 9.85412 17.7684 8.76328 16.2925 7.91078L10.6367 4.64745C9.73837 4.13412 8.89503 3.86828 8.14337 3.86828Z" fill="white"/>
</g>
</g>
</svg>
