<svg width="165" height="48" viewBox="0 0 165 48" fill="none" xmlns="http://www.w3.org/2000/svg">
<g id="Company logo" clip-path="url(#clip0_1_7232)">
<path id="Vector" d="M164.037 21.8339V18.9522H160.458V14.4722L160.338 14.5093L156.977 15.5377L156.91 15.5579V18.9523H151.605V17.0613C151.605 16.1808 151.802 15.507 152.19 15.0576C152.576 14.6136 153.127 14.3879 153.83 14.3879C154.335 14.3879 154.858 14.507 155.385 14.7417L155.517 14.8007V11.7659L155.455 11.743C154.964 11.5665 154.295 11.4775 153.467 11.4775C152.423 11.4775 151.475 11.7047 150.648 12.1548C149.82 12.6056 149.169 13.2492 148.713 14.0674C148.259 14.8847 148.028 15.8286 148.028 16.8732V18.9522H145.537V21.8339H148.028V33.9739H151.605V21.8339H156.91V29.5486C156.91 32.726 158.409 34.3361 161.365 34.3361C161.851 34.3361 162.362 34.2792 162.884 34.1677C163.415 34.0533 163.777 33.939 163.99 33.817L164.037 33.7891V30.8807L163.891 30.977C163.697 31.1063 163.456 31.212 163.172 31.2907C162.888 31.3707 162.65 31.4108 162.466 31.4108C161.773 31.4108 161.261 31.2242 160.943 30.856C160.622 30.4845 160.459 29.8348 160.459 28.9259V21.8339H164.037ZM137.548 31.4113C136.25 31.4113 135.226 30.9808 134.505 30.1327C133.779 29.2804 133.411 28.0653 133.411 26.5214C133.411 24.9286 133.779 23.6819 134.505 22.8146C135.227 21.9529 136.241 21.5156 137.519 21.5156C138.759 21.5156 139.747 21.9332 140.454 22.7577C141.165 23.5863 141.526 24.823 141.526 26.4344C141.526 28.0656 141.186 29.3186 140.518 30.1568C139.853 30.9887 138.854 31.4113 137.548 31.4113ZM137.707 18.5903C135.23 18.5903 133.263 19.3161 131.86 20.7476C130.458 22.1793 129.747 24.1605 129.747 26.6367C129.747 28.9886 130.441 30.8804 131.81 32.2587C133.178 33.6374 135.041 34.3358 137.345 34.3358C139.746 34.3358 141.674 33.5998 143.077 32.1485C144.479 30.6988 145.189 28.7363 145.189 26.3179C145.189 23.9292 144.522 22.0233 143.207 20.6542C141.891 19.2846 140.041 18.5903 137.707 18.5903ZM123.98 18.5903C122.295 18.5903 120.901 19.0213 119.837 19.8711C118.766 20.7259 118.222 21.847 118.222 23.2037C118.222 23.9089 118.339 24.5353 118.57 25.0667C118.802 25.5997 119.162 26.0691 119.639 26.463C120.113 26.8537 120.844 27.2629 121.813 27.6793C122.628 28.0146 123.236 28.2982 123.622 28.5217C123.999 28.7407 124.267 28.9609 124.418 29.1754C124.565 29.3852 124.639 29.6724 124.639 30.0269C124.639 31.0361 123.884 31.5271 122.328 31.5271C121.752 31.5271 121.094 31.4067 120.373 31.1692C119.657 30.9354 118.982 30.5929 118.37 30.1538L118.222 30.0473V33.4912L118.276 33.5166C118.783 33.7502 119.421 33.9473 120.173 34.1023C120.923 34.2575 121.606 34.3364 122.198 34.3364C124.026 34.3364 125.499 33.9034 126.573 33.0485C127.654 32.1878 128.202 31.0402 128.202 29.6366C128.202 28.6241 127.907 27.7558 127.326 27.0555C126.749 26.3609 125.746 25.7232 124.348 25.1595C123.235 24.7125 122.521 24.3415 122.227 24.0566C121.943 23.7815 121.799 23.3923 121.799 22.8995C121.799 22.4627 121.977 22.1127 122.342 21.8293C122.71 21.5444 123.222 21.3996 123.864 21.3996C124.46 21.3996 125.07 21.4937 125.677 21.6782C126.282 21.8627 126.815 22.1098 127.259 22.4121L127.405 22.512V19.2451L127.349 19.221C126.939 19.0452 126.399 18.8948 125.742 18.7727C125.089 18.6515 124.496 18.5903 123.98 18.5903ZM108.897 31.4113C107.599 31.4113 106.575 30.9808 105.854 30.1327C105.128 29.2804 104.761 28.0656 104.761 26.5214C104.761 24.9286 105.128 23.6819 105.855 22.8146C106.576 21.9529 107.589 21.5156 108.868 21.5156C110.108 21.5156 111.095 21.9332 111.803 22.7577C112.514 23.5863 112.874 24.823 112.874 26.4344C112.874 28.0656 112.535 29.3186 111.866 30.1568C111.202 30.9887 110.203 31.4113 108.897 31.4113ZM109.056 18.5903C106.579 18.5903 104.611 19.3161 103.209 20.7476C101.807 22.1793 101.096 24.1605 101.096 26.6367C101.096 28.9896 101.79 30.8804 103.159 32.2587C104.528 33.6374 106.39 34.3358 108.694 34.3358C111.095 34.3358 113.024 33.5998 114.426 32.1485C115.827 30.6988 116.538 28.7363 116.538 26.3179C116.538 23.9292 115.871 22.0233 114.556 20.6542C113.24 19.2846 111.389 18.5903 109.056 18.5903ZM95.6662 21.5536V18.9522H92.1328V33.9736H95.6662V26.2895C95.6662 24.983 95.9625 23.9095 96.5471 23.0988C97.1242 22.2977 97.8933 21.8917 98.8323 21.8917C99.1506 21.8917 99.5079 21.9442 99.8948 22.048C100.278 22.1512 100.555 22.2633 100.719 22.3812L100.867 22.4888V18.9265L100.81 18.9019C100.481 18.7621 100.015 18.6916 99.4264 18.6916C98.5384 18.6916 97.7438 18.9769 97.0632 19.5387C96.4658 20.0324 96.034 20.7094 95.7038 21.5536H95.6662ZM85.805 18.5903C84.1839 18.5903 82.738 18.9379 81.5081 19.6231C80.2757 20.31 79.3226 21.2905 78.6741 22.5373C78.0285 23.7811 77.7007 25.234 77.7007 26.8543C77.7007 28.2736 78.0185 29.5761 78.6467 30.724C79.2752 31.8738 80.1647 32.7733 81.2908 33.3972C82.4153 34.0203 83.7149 34.3362 85.1538 34.3362C86.833 34.3362 88.2668 34.0005 89.4163 33.3384L89.4627 33.3118V30.0746L89.3142 30.183C88.7935 30.5623 88.2116 30.8651 87.5855 31.0832C86.961 31.3011 86.3916 31.4113 85.8923 31.4113C84.5058 31.4113 83.3928 30.9774 82.5849 30.1221C81.7752 29.2657 81.3647 28.0631 81.3647 26.5498C81.3647 25.027 81.7928 23.7935 82.6365 22.8834C83.4777 21.9759 84.5928 21.5156 85.9506 21.5156C87.112 21.5156 88.2438 21.9088 89.3145 22.6855L89.4627 22.7932V19.3822L89.4148 19.3553C89.0119 19.1297 88.4624 18.9435 87.7801 18.8022C87.1008 18.6613 86.4363 18.5903 85.805 18.5903ZM75.2672 18.9523H71.7337V33.9736H75.2672V18.9523ZM73.5366 12.5532C72.955 12.5532 72.4478 12.7512 72.031 13.1435C71.6126 13.5369 71.4003 14.0322 71.4003 14.6168C71.4003 15.1922 71.61 15.6785 72.0245 16.0615C72.4363 16.4433 72.9452 16.6368 73.5367 16.6368C74.1281 16.6368 74.6388 16.4433 75.0555 16.0621C75.475 15.6785 75.6877 15.1923 75.6877 14.6168C75.6877 14.0527 75.4807 13.5624 75.0728 13.1593C74.6653 12.757 74.1482 12.5532 73.5366 12.5532ZM64.7203 17.844V33.9736H68.3264V13.013H63.3354L56.9916 28.5819L50.8353 13.013H45.6411V33.9734H49.0299V17.8425H49.1462L55.6471 33.9736H58.2045L64.604 17.844H64.7203Z" fill="#706D6E"/>
<path id="Vector_2" d="M16.8017 22.6313H0.179199V6.00879H16.8017V22.6313Z" fill="#F1511B"/>
<path id="Vector_3" d="M35.1549 22.6313H18.5327V6.00879H35.1549V22.6313Z" fill="#80CC28"/>
<path id="Vector_4" d="M16.8012 40.991H0.179199V24.3687H16.8012V40.991Z" fill="#00ADEF"/>
<path id="Vector_5" d="M35.1549 40.991H18.5327V24.3687H35.1549V40.991Z" fill="#FBBC09"/>
</g>
<defs>
<clipPath id="clip0_1_7232">
<rect width="164" height="48" fill="white" transform="translate(0.179199)"/>
</clipPath>
</defs>
</svg>
