<svg width="141" height="48" viewBox="0 0 141 48" fill="none" xmlns="http://www.w3.org/2000/svg">
<g id="Company logo" clip-path="url(#clip0_1_7229)">
<path id="Vector" d="M22.0019 3.0791C10.4039 3.0791 1.00146 12.4813 1.00146 24.0792C1.00146 35.6777 10.4039 45.0791 22.0019 45.0791C33.6011 45.0791 43.0025 35.6777 43.0025 24.0792C43.0025 12.482 33.6011 3.0801 22.0016 3.0801L22.0019 3.0791ZM31.6325 33.3673C31.2563 33.9842 30.4488 34.1798 29.8319 33.8011C24.9013 30.7894 18.6942 30.1073 11.3842 31.7774C10.6798 31.9379 9.97759 31.4966 9.8171 30.7919C9.65585 30.0872 10.0955 29.3851 10.8016 29.2246C18.8012 27.3969 25.6631 28.1839 31.1987 31.5668C31.8156 31.9454 32.0112 32.7504 31.6325 33.3673ZM34.2029 27.6492C33.7289 28.4196 32.7208 28.6628 31.951 28.1889C26.3061 24.7192 17.7014 23.7144 11.0246 25.7411C10.1586 26.0026 9.24408 25.5146 8.98128 24.6502C8.72047 23.7843 9.20873 22.8715 10.0731 22.6082C17.6999 20.2941 27.1813 21.415 33.6637 25.3985C34.4336 25.8725 34.6769 26.8806 34.2029 27.6495V27.6492ZM34.4236 21.6949C27.6552 17.6748 16.4884 17.3051 10.0262 19.2664C8.98855 19.5811 7.89117 18.9953 7.5767 17.9576C7.26223 16.9194 7.84754 15.8228 8.88598 15.5073C16.3041 13.2554 28.6358 13.6905 36.4282 18.3165C37.3636 18.8704 37.6696 20.0759 37.1154 21.008C36.5637 21.9414 35.3549 22.2491 34.4246 21.6949H34.4236ZM58.1366 22.4653C54.5104 21.6006 53.8659 20.9937 53.8659 19.7186C53.8659 18.5139 54.9994 17.7031 56.6871 17.7031C58.3221 17.7031 59.9421 18.3187 61.6424 19.5861C61.6925 19.6245 61.7577 19.6398 61.8204 19.6298C61.8856 19.6203 61.9408 19.5854 61.9784 19.533L63.7488 17.0373C63.8216 16.9345 63.8015 16.7928 63.7037 16.7143C61.68 15.0911 59.403 14.3019 56.7398 14.3019C52.8252 14.3019 50.0893 16.6514 50.0893 20.013C50.0893 23.6178 52.4491 24.8942 56.5266 25.8795C59.9948 26.6787 60.5816 27.3483 60.5816 28.545C60.5816 29.8716 59.3979 30.6966 57.4921 30.6966C55.3756 30.6966 53.6477 29.9819 51.7168 28.3118C51.6692 28.2691 51.604 28.2516 51.5438 28.2541C51.4786 28.2591 51.4209 28.2892 51.3808 28.3368L49.3947 30.6991C49.3119 30.7994 49.3219 30.9449 49.4172 31.0301C51.6641 33.0363 54.4276 34.0945 57.4118 34.0945C61.6298 34.0945 64.3557 31.79 64.3557 28.2215C64.3632 25.2105 62.5602 23.5428 58.1441 22.4685L58.1366 22.4653ZM73.9001 18.8893C72.072 18.8893 70.5723 19.6095 69.3335 21.0853V19.4242C69.3335 19.293 69.2282 19.1862 69.0978 19.1862H65.8503C65.7199 19.1862 65.6146 19.293 65.6146 19.4242V37.8812C65.6146 38.0116 65.7199 38.1194 65.8503 38.1194H69.0978C69.2282 38.1194 69.3335 38.0116 69.3335 37.8812V32.0558C70.5723 33.4425 72.072 34.1221 73.9001 34.1221C77.298 34.1221 80.7386 31.5066 80.7386 26.5064C80.7436 21.5053 77.3031 18.889 73.9026 18.889L73.9001 18.8893ZM76.962 26.5064C76.962 29.0515 75.3947 30.8295 73.1478 30.8295C70.9284 30.8295 69.2533 28.9713 69.2533 26.5064C69.2533 24.0414 70.9284 22.1836 73.1478 22.1836C75.3571 22.1834 76.962 24.001 76.962 26.5062V26.5064ZM89.5533 18.8893C85.1773 18.8893 81.7492 22.2586 81.7492 26.5609C81.7492 30.817 85.1547 34.1497 89.5006 34.1497C93.8916 34.1497 97.3297 30.7919 97.3297 26.5064C97.3297 22.2356 93.9142 18.8898 89.5533 18.8898V18.8893ZM89.5533 30.8546C87.2261 30.8546 85.4707 28.9838 85.4707 26.5052C85.4707 24.0153 87.1659 22.2085 89.5006 22.2085C91.8428 22.2085 93.6082 24.0785 93.6082 26.5596C93.6082 29.049 91.903 30.8546 89.5533 30.8546ZM106.673 19.1862H103.1V15.5334C103.1 15.4025 102.995 15.2957 102.864 15.2957H99.6167C99.4863 15.2957 99.3785 15.4025 99.3785 15.5334V19.1862H97.8187C97.6883 19.1862 97.583 19.293 97.583 19.4242V22.2145C97.583 22.3454 97.6883 22.4525 97.8187 22.4525H99.3785V29.6734C99.3785 32.5899 100.83 34.0695 103.697 34.0695C104.86 34.0695 105.826 33.8287 106.736 33.3121C106.811 33.272 106.857 33.1918 106.857 33.1065V30.4483C106.857 30.3681 106.814 30.2903 106.744 30.2477C106.673 30.2026 106.586 30.2001 106.513 30.2377C105.889 30.5511 105.284 30.6966 104.607 30.6966C103.566 30.6966 103.1 30.2226 103.1 29.1644V22.4537H106.673C106.804 22.4537 106.909 22.3469 106.909 22.2157V19.4257C106.914 19.2945 106.809 19.1877 106.676 19.1877L106.673 19.1862ZM119.122 19.2005V18.7518C119.122 17.432 119.628 16.8435 120.762 16.8435C121.439 16.8435 121.983 16.9779 122.592 17.181C122.668 17.2046 122.745 17.1928 122.806 17.1479C122.868 17.103 122.903 17.031 122.903 16.9548V14.2189C122.903 14.1143 122.838 14.0218 122.735 13.9909C122.093 13.7996 121.271 13.6032 120.037 13.6032C117.04 13.6032 115.453 15.2919 115.453 18.485V19.1721H113.893C113.763 19.1721 113.655 19.279 113.655 19.4099V22.2145C113.655 22.3454 113.763 22.4525 113.893 22.4525H115.453V33.588C115.453 33.7209 115.561 33.8262 115.691 33.8262H118.936C119.069 33.8262 119.174 33.7209 119.174 33.588V22.4532H122.206L126.851 33.588C126.324 34.7566 125.805 34.9898 125.098 34.9898C124.526 34.9898 123.922 34.8193 123.307 34.4807C123.249 34.4506 123.179 34.4456 123.119 34.4632C123.056 34.4858 123.004 34.5309 122.979 34.5911L121.878 37.006C121.825 37.1214 121.87 37.2543 121.981 37.3145C123.129 37.9364 124.165 38.2022 125.446 38.2022C127.844 38.2022 129.17 37.0837 130.336 34.0795L135.969 19.5255C135.999 19.4522 135.989 19.3695 135.944 19.3045C135.901 19.2401 135.828 19.2012 135.75 19.2012H132.37C132.267 19.2012 132.177 19.2657 132.144 19.3607L128.681 29.2496L124.89 19.3542C124.854 19.2622 124.767 19.2012 124.669 19.2012H119.122V19.2005ZM111.905 19.1862H108.657C108.527 19.1862 108.419 19.293 108.419 19.4242V33.588C108.419 33.7209 108.527 33.8262 108.657 33.8262H111.905C112.035 33.8262 112.143 33.7209 112.143 33.588V19.4252C112.143 19.294 112.037 19.1872 111.905 19.1872V19.1862ZM110.3 12.7366C109.013 12.7366 107.97 13.7778 107.97 15.064C107.97 16.3509 109.013 17.3934 110.3 17.3934C111.586 17.3934 112.627 16.3509 112.627 15.064C112.627 13.778 111.584 12.7366 110.3 12.7366ZM138.742 23.7404C137.458 23.7404 136.458 22.7085 136.458 21.4554C136.458 20.2023 137.471 19.1586 138.755 19.1586C140.039 19.1586 141.039 20.1903 141.039 21.4424C141.039 22.6955 140.026 23.7404 138.742 23.7404ZM138.755 19.3858C137.584 19.3858 136.698 20.3161 136.698 21.4554C136.698 22.5942 137.579 23.512 138.742 23.512C139.913 23.512 140.798 22.5824 140.798 21.4424C140.798 20.3036 139.918 19.3858 138.755 19.3858ZM139.261 21.6773L139.908 22.5821H139.362L138.78 21.7521H138.281V22.5821H137.824V20.1837H138.893C139.452 20.1837 139.818 20.4689 139.818 20.9488C139.82 21.3421 139.592 21.5823 139.264 21.6773H139.261ZM138.875 20.5953H138.281V21.3538H138.875C139.171 21.3538 139.349 21.2086 139.349 20.9742C139.349 20.7274 139.171 20.5953 138.875 20.5953Z" fill="#1ED760"/>
</g>
<defs>
<clipPath id="clip0_1_7229">
<rect width="140" height="48" fill="white" transform="translate(0.929199)"/>
</clipPath>
</defs>
</svg>
