<svg width="114" height="48" viewBox="0 0 114 48" fill="none" xmlns="http://www.w3.org/2000/svg">
<g id="Company logo" clip-path="url(#clip0_1_7230)">
<path id="Vector" d="M48.9168 25.6501C48.9168 30.9734 44.7525 34.896 39.6418 34.896C34.5312 34.896 30.3668 30.9734 30.3668 25.6501C30.3668 20.2894 34.5312 16.4043 39.6418 16.4043C44.7525 16.4043 48.9168 20.2894 48.9168 25.6501ZM44.8567 25.6501C44.8567 22.3236 42.4431 20.0476 39.6418 20.0476C36.8405 20.0476 34.427 22.3236 34.427 25.6501C34.427 28.9433 36.8405 31.2527 39.6418 31.2527C42.4431 31.2527 44.8567 28.9391 44.8567 25.6501Z" fill="#EA4335"/>
<path id="Vector_2" d="M68.926 25.6501C68.926 30.9734 64.7616 34.896 59.651 34.896C54.5404 34.896 50.376 30.9734 50.376 25.6501C50.376 20.2936 54.5404 16.4043 59.651 16.4043C64.7616 16.4043 68.926 20.2894 68.926 25.6501ZM64.8659 25.6501C64.8659 22.3236 62.4523 20.0476 59.651 20.0476C56.8497 20.0476 54.4361 22.3236 54.4361 25.6501C54.4361 28.9433 56.8497 31.2527 59.651 31.2527C62.4523 31.2527 64.8659 28.9391 64.8659 25.6501Z" fill="#FBBC05"/>
<path id="Vector_3" d="M88.1016 16.9629V33.562C88.1016 40.3901 84.0748 43.1789 79.3143 43.1789C74.8331 43.1789 72.1361 40.1817 71.119 37.7306L74.6539 36.2591C75.2833 37.7639 76.8257 39.5397 79.3102 39.5397C82.3574 39.5397 84.2457 37.6597 84.2457 34.1206V32.7909H84.104C83.1952 33.9122 81.4444 34.8918 79.2351 34.8918C74.6122 34.8918 70.377 30.865 70.377 25.6835C70.377 20.4645 74.6122 16.4043 79.2351 16.4043C81.4403 16.4043 83.1911 17.3839 84.104 18.4719H84.2457V16.9671H88.1016V16.9629ZM84.5333 25.6835C84.5333 22.4278 82.3615 20.0476 79.5978 20.0476C76.7965 20.0476 74.4496 22.4278 74.4496 25.6835C74.4496 28.9058 76.7965 31.2527 79.5978 31.2527C82.3615 31.2527 84.5333 28.9058 84.5333 25.6835Z" fill="#4285F4"/>
<path id="Vector_4" d="M94.4582 7.23358V34.3291H90.498V7.23358H94.4582Z" fill="#34A853"/>
<path id="Vector_5" d="M109.891 28.6932L113.042 30.7941C112.025 32.299 109.574 34.8918 105.339 34.8918C100.086 34.8918 96.1636 30.8317 96.1636 25.646C96.1636 20.1477 100.12 16.4001 104.884 16.4001C109.682 16.4001 112.029 20.2185 112.796 22.282L113.217 23.3324L100.857 28.4514C101.804 30.3064 103.275 31.2527 105.339 31.2527C107.406 31.2527 108.84 30.2356 109.891 28.6932ZM100.19 25.3667L108.452 21.936C107.998 20.7813 106.631 19.9768 105.022 19.9768C102.958 19.9768 100.086 21.7984 100.19 25.3667Z" fill="#EA4335"/>
<path id="Vector_6" d="M15.3767 23.2447V19.3221H28.5951C28.7243 20.0058 28.791 20.8145 28.791 21.6899C28.791 24.6329 27.9865 28.272 25.3937 30.8648C22.8717 33.491 19.6494 34.8917 15.3808 34.8917C7.46892 34.8917 0.815918 28.4471 0.815918 20.5352C0.815918 12.6233 7.46892 6.17871 15.3808 6.17871C19.7578 6.17871 22.8759 7.89615 25.2186 10.1347L22.4507 12.9026C20.7708 11.3269 18.4947 10.1013 15.3767 10.1013C9.59905 10.1013 5.08034 14.7576 5.08034 20.5352C5.08034 26.3128 9.59905 30.9691 15.3767 30.9691C19.1242 30.9691 21.2585 29.4642 22.6258 28.0969C23.7346 26.9881 24.4641 25.4041 24.7517 23.2406L15.3767 23.2447Z" fill="#4285F4"/>
</g>
<defs>
<clipPath id="clip0_1_7230">
<rect width="113" height="48" fill="white" transform="translate(0.679199)"/>
</clipPath>
</defs>
</svg>
