<svg width="144" height="48" viewBox="0 0 144 48" fill="none" xmlns="http://www.w3.org/2000/svg">
<g id="Company logo" clip-path="url(#clip0_1_7231)">
<g id="Vector">
<path d="M53.6418 12.7716H45.7666C45.2277 12.7716 44.7694 13.1631 44.6853 13.6951L41.5002 33.8892C41.4369 34.2877 41.7455 34.6469 42.1497 34.6469H45.9094C46.4483 34.6469 46.9066 34.2554 46.9906 33.7223L47.8497 28.2756C47.9326 27.7425 48.392 27.3509 48.9298 27.3509H51.4228C56.6104 27.3509 59.6043 24.8406 60.3862 19.8661C60.7386 17.6897 60.4012 15.9797 59.3821 14.7822C58.2628 13.4671 56.2776 12.7716 53.6418 12.7716ZM54.5503 20.1471C54.1197 22.9729 51.9606 22.9729 49.8729 22.9729H48.6845L49.5182 17.6955C49.5677 17.3765 49.8441 17.1416 50.1665 17.1416H50.7112C52.1333 17.1416 53.4748 17.1416 54.168 17.9523C54.5814 18.4359 54.7081 19.1545 54.5503 20.1471Z" fill="#253B80"/>
<path d="M77.1824 20.0561H73.4112C73.0899 20.0561 72.8124 20.291 72.7629 20.61L72.5959 21.6647L72.3322 21.2824C71.5158 20.0975 69.6952 19.7014 67.8782 19.7014C63.7108 19.7014 60.1515 22.8577 59.4583 27.2853C59.0979 29.4939 59.6103 31.6058 60.8631 33.0786C62.0123 34.4327 63.6567 34.997 65.6131 34.997C68.9709 34.997 70.8329 32.8379 70.8329 32.8379L70.6648 33.8858C70.6015 34.2865 70.9101 34.6458 71.312 34.6458H74.7089C75.249 34.6458 75.705 34.2543 75.7902 33.7211L77.8284 20.8138C77.8929 20.4165 77.5854 20.0561 77.1824 20.0561ZM71.9257 27.3958C71.5618 29.5503 69.8518 30.9966 67.6709 30.9966C66.5758 30.9966 65.7006 30.6454 65.1387 29.9798C64.5814 29.3189 64.3695 28.3781 64.5468 27.3302C64.8865 25.1941 66.6253 23.7006 68.7729 23.7006C69.8438 23.7006 70.7143 24.0564 71.2878 24.7278C71.8624 25.406 72.0904 26.3526 71.9257 27.3958Z" fill="#253B80"/>
<path d="M97.2671 20.056H93.4774C93.1159 20.056 92.7762 20.2357 92.5712 20.5362L87.3445 28.2352L85.1289 20.8368C84.9896 20.3738 84.5624 20.056 84.0788 20.056H80.3548C79.9022 20.056 79.5879 20.4982 79.7318 20.9243L83.906 33.1741L79.9817 38.714C79.6731 39.1505 79.984 39.7504 80.5171 39.7504H84.3022C84.6614 39.7504 84.9977 39.5754 85.2015 39.2806L97.806 21.0866C98.1077 20.6514 97.7979 20.056 97.2671 20.056Z" fill="#253B80"/>
</g>
<g id="Vector_2">
<path d="M109.814 12.7716H101.938C101.4 12.7716 100.941 13.1631 100.857 13.6951L97.6723 33.8892C97.609 34.2877 97.9176 34.6469 98.3195 34.6469H102.361C102.737 34.6469 103.058 34.3729 103.117 33.9998L104.021 28.2756C104.104 27.7425 104.563 27.3509 105.101 27.3509H107.593C112.781 27.3509 115.774 24.8406 116.557 19.8661C116.911 17.6897 116.571 15.9797 115.552 14.7822C114.434 13.4671 112.45 12.7716 109.814 12.7716ZM110.722 20.1471C110.293 22.9729 108.134 22.9729 106.045 22.9729H104.858L105.693 17.6955C105.742 17.3765 106.016 17.1416 106.34 17.1416H106.884C108.305 17.1416 109.648 17.1416 110.341 17.9523C110.755 18.4359 110.88 19.1545 110.722 20.1471Z" fill="#179BD7"/>
<path d="M133.353 20.0561H129.584C129.261 20.0561 128.986 20.291 128.937 20.61L128.77 21.6647L128.505 21.2824C127.689 20.0975 125.87 19.7014 124.052 19.7014C119.885 19.7014 116.327 22.8577 115.634 27.2853C115.274 29.4939 115.785 31.6058 117.037 33.0786C118.189 34.4327 119.831 34.997 121.787 34.997C125.145 34.997 127.007 32.8379 127.007 32.8379L126.839 33.8858C126.776 34.2865 127.084 34.6458 127.489 34.6458H130.884C131.422 34.6458 131.88 34.2543 131.965 33.7211L134.004 20.8138C134.066 20.4165 133.757 20.0561 133.353 20.0561ZM128.097 27.3958C127.735 29.5503 126.023 30.9966 123.842 30.9966C122.749 30.9966 121.871 30.6454 121.31 29.9798C120.752 29.3189 120.543 28.3781 120.718 27.3302C121.06 25.1941 122.796 23.7006 124.944 23.7006C126.015 23.7006 126.885 24.0564 127.459 24.7278C128.036 25.406 128.264 26.3526 128.097 27.3958Z" fill="#179BD7"/>
<path d="M137.799 13.3254L134.567 33.8892C134.504 34.2876 134.812 34.6469 135.214 34.6469H138.464C139.004 34.6469 139.462 34.2554 139.545 33.7222L142.732 13.5292C142.796 13.1308 142.487 12.7704 142.085 12.7704H138.446C138.125 12.7715 137.849 13.0064 137.799 13.3254Z" fill="#179BD7"/>
</g>
<path id="Vector_3" d="M8.79603 38.5713L9.39827 34.746L8.05676 34.7149H1.65088L6.10264 6.48781C6.11645 6.40259 6.16136 6.32314 6.227 6.26671C6.29264 6.21029 6.3767 6.1792 6.46421 6.1792H17.2654C20.8512 6.1792 23.3258 6.92538 24.6178 8.39817C25.2235 9.08908 25.6093 9.81108 25.7958 10.6056C25.9916 11.4393 25.9951 12.4354 25.8039 13.6502L25.7901 13.7389V14.5173L26.3958 14.8605C26.9059 15.1311 27.3112 15.4408 27.6221 15.7955C28.1403 16.3862 28.4754 17.137 28.6171 18.0271C28.7633 18.9426 28.7149 20.0319 28.4754 21.2652C28.1991 22.6839 27.7523 23.9194 27.1489 24.9305C26.5938 25.862 25.8868 26.6347 25.0474 27.2335C24.2459 27.8024 23.2936 28.2342 22.2169 28.5105C21.1737 28.7823 19.9841 28.9193 18.6795 28.9193H17.8389C17.2378 28.9193 16.654 29.1358 16.1957 29.5239C15.7362 29.92 15.4322 30.4612 15.3389 31.0531L15.2756 31.3974L14.2116 38.1395L14.1632 38.3871C14.1506 38.4654 14.1287 38.5045 14.0965 38.531C14.0677 38.5552 14.0262 38.5713 13.9859 38.5713H8.79603Z" fill="#253B80"/>
<path id="Vector_4" d="M26.9693 13.8286C26.9371 14.0347 26.9002 14.2455 26.8588 14.4619C25.4344 21.7752 20.5612 24.3016 14.3372 24.3016H11.1682C10.4071 24.3016 9.7657 24.8544 9.64709 25.6052L8.02461 35.8951L7.56516 38.8119C7.488 39.3047 7.868 39.7492 8.36546 39.7492H13.986C14.6516 39.7492 15.217 39.2656 15.3218 38.6092L15.377 38.3236L16.4353 31.608L16.5032 31.2395C16.6069 30.5809 17.1734 30.0972 17.839 30.0972H18.6796C24.1251 30.0972 28.388 27.8863 29.6339 21.4885C30.1544 18.8158 29.885 16.5842 28.5078 15.0147C28.0909 14.5414 27.5739 14.1487 26.9693 13.8286Z" fill="#179BD7"/>
<path id="Vector_5" d="M25.4792 13.2345C25.2615 13.1712 25.037 13.1136 24.8067 13.0618C24.5752 13.0111 24.338 12.9662 24.0939 12.9271C23.2395 12.7889 22.3033 12.7233 21.3003 12.7233H12.8344C12.6259 12.7233 12.4279 12.7705 12.2505 12.8557C11.8602 13.0434 11.57 13.413 11.4998 13.8656L9.69879 25.2725L9.64697 25.6053C9.76558 24.8545 10.407 24.3018 11.1681 24.3018H14.3371C20.561 24.3018 25.4342 21.7742 26.8587 14.4621C26.9013 14.2456 26.937 14.0348 26.9692 13.8287C26.6088 13.6376 26.2184 13.4741 25.7981 13.3347C25.6945 13.3002 25.5874 13.2668 25.4792 13.2345Z" fill="#222D65"/>
<path id="Vector_6" d="M11.4999 13.8655C11.5701 13.413 11.8603 13.0433 12.2506 12.8568C12.4291 12.7716 12.626 12.7244 12.8345 12.7244H21.3004C22.3034 12.7244 23.2395 12.79 24.094 12.9282C24.3381 12.9673 24.5753 13.0122 24.8068 13.0629C25.0371 13.1147 25.2616 13.1723 25.4792 13.2356C25.5875 13.2679 25.6946 13.3013 25.7994 13.3347C26.2197 13.474 26.61 13.6387 26.9705 13.8287C27.3942 11.1261 26.967 9.28594 25.5057 7.6197C23.8948 5.78533 20.9872 5 17.2666 5H6.46543C5.70543 5 5.05713 5.55273 4.93967 6.30467L0.440701 34.8219C0.352035 35.3862 0.787308 35.8952 1.35616 35.8952H8.02458L9.69888 25.2724L11.4999 13.8655Z" fill="#253B80"/>
</g>
<defs>
<clipPath id="clip0_1_7231">
<rect width="143" height="48" fill="white" transform="translate(0.429199)"/>
</clipPath>
</defs>
</svg>
