<svg width="134" height="48" viewBox="0 0 134 48" fill="none" xmlns="http://www.w3.org/2000/svg">
<g id="Company logo" clip-path="url(#clip0_1_7233)">
<path id="Vector" d="M15.5642 6H0.929199V41L15.5642 6Z" fill="#FA0C00"/>
<path id="Vector_2" d="M25.8613 6H40.4772V41L25.8613 6Z" fill="#FA0C00"/>
<path id="Vector_3" d="M20.7129 18.8998L30.0278 41H23.9164L21.1324 33.9638H14.3154L20.7129 18.8998Z" fill="#FA0C00"/>
<path id="Vector_4" d="M64.3528 28.2577L66.0785 33.206C66.1357 33.3299 66.2215 33.3871 66.374 33.3871H69.6919C69.8731 33.3871 69.9017 33.3013 69.8731 33.1202L63.018 14.0804C62.9894 13.9279 62.9608 13.8993 62.8082 13.8993H58.6895C58.5751 13.8993 58.5083 13.9851 58.5083 14.109C58.4511 15.1101 58.3653 15.4152 58.2414 15.7108L52.1299 33.0916C52.1013 33.3013 52.1681 33.3871 52.3397 33.3871H55.3048C55.486 33.3871 55.5718 33.3299 55.6385 33.1488L57.2689 28.2577H64.3528ZM58.2128 25.0257C59.109 22.318 60.2912 18.8475 60.7679 16.8644H60.7965C61.3876 18.9428 62.7796 23.0616 63.4089 25.0257H58.2128Z" fill="#FA0C00"/>
<path id="Vector_5" d="M78.6859 33.6827C80.4688 33.6827 82.3661 33.3585 84.292 32.5291C84.4446 32.4719 84.4732 32.4051 84.4732 32.2621C84.4159 31.7282 84.3492 30.9559 84.3492 30.3648V12.4405C84.3492 12.3261 84.3492 12.2689 84.2062 12.2689H80.9741C80.8502 12.2689 80.793 12.3261 80.793 12.4787V18.552C80.2876 18.4947 79.9349 18.4661 79.5154 18.4661C74.3002 18.4661 71.0967 21.908 71.0967 26.2079C71.0967 31.1943 74.386 33.6827 78.6859 33.6827ZM80.793 30.3648C80.259 30.5364 79.6679 30.6032 79.0673 30.6032C76.7028 30.6032 74.7673 29.2684 74.7673 26.0268C74.7673 23.157 76.76 21.4599 79.401 21.4599C79.9349 21.4599 80.4021 21.5171 80.793 21.6696V30.3648Z" fill="#FA0C00"/>
<path id="Vector_6" d="M94.784 18.4662C90.3316 18.4662 87.5762 21.8794 87.5762 26.0935C87.5762 29.8595 89.769 33.6827 94.7173 33.6827C98.9028 33.6827 101.839 30.6032 101.839 25.9982C101.839 21.9366 99.3509 18.4662 94.784 18.4662ZM94.6029 21.4599C97.1199 21.4599 98.1877 23.6242 98.1877 26.0935C98.1877 29.1444 96.6146 30.6604 94.784 30.6604C92.5244 30.6604 91.1896 28.7631 91.1896 26.0268C91.1896 23.2142 92.6102 21.4599 94.6029 21.4599Z" fill="#FA0C00"/>
<path id="Vector_7" d="M105.181 12.2689C105.057 12.2689 104.971 12.3261 104.971 12.4787V32.7674C104.971 32.8532 105.057 33.0058 105.181 33.0344C106.601 33.4729 108.089 33.6827 109.624 33.6827C114.019 33.6827 118.29 30.9559 118.29 25.4642C118.29 21.4885 115.564 18.4661 111.292 18.4661C110.31 18.4661 109.395 18.6187 108.594 18.8856L108.556 12.5073C108.556 12.2975 108.499 12.2689 108.289 12.2689H105.181ZM114.639 25.8265C114.639 29.1158 112.389 30.6604 109.958 30.6604C109.452 30.6604 109.004 30.6318 108.594 30.5078V21.8508C109.061 21.6696 109.624 21.5171 110.663 21.5171C113.008 21.5171 114.639 23.0044 114.639 25.8265Z" fill="#FA0C00"/>
<path id="Vector_8" d="M130.352 26.8944C131.802 26.8944 132.993 26.8658 133.403 26.7704C133.556 26.7418 133.613 26.6846 133.642 26.5607C133.728 26.2365 133.766 25.5596 133.766 24.7301C133.766 21.908 132.069 18.4662 127.683 18.4662C123.202 18.4662 120.713 22.1177 120.713 26.2365C120.713 29.8881 122.639 33.6827 128.036 33.6827C130.057 33.6827 131.363 33.3586 132.488 32.8246C132.603 32.7674 132.66 32.6721 132.66 32.5005V30.0311C132.66 29.8881 132.574 29.8595 132.488 29.9167C131.363 30.3934 130.143 30.6318 128.808 30.6318C125.786 30.6318 124.413 28.9633 124.327 26.8944H130.352ZM124.327 24.3392C124.565 22.89 125.481 21.3169 127.53 21.3169C129.79 21.3169 130.381 23.2142 130.381 24.0723C130.381 24.1009 130.381 24.2248 130.381 24.3106C130.257 24.3392 129.876 24.3392 128.751 24.3392H124.327Z" fill="#FA0C00"/>
</g>
<defs>
<clipPath id="clip0_1_7233">
<rect width="133" height="48" fill="white" transform="translate(0.929199)"/>
</clipPath>
</defs>
</svg>
